<svg xmlns="http://www.w3.org/2000/svg" viewBox="-1055.341 370.586 603.441 59.528"><defs><style>.a{fill:none;stroke:#fff;stroke-linecap:round;stroke-linejoin:round;stroke-miterlimit:10;stroke-width:2px;}</style></defs><g transform="translate(-1055 371)"><circle class="a" cx="28.3" cy="28.3" r="28.3" transform="translate(409.4 1)"/><circle class="a" cx="28.3" cy="28.3" r="28.3" transform="translate(545.5 1)"/><line class="a" y1="56.7" transform="translate(1 1)"/><line class="a" x1="28.3" y1="56.7" transform="translate(1 1)"/><line class="a" y1="56.7" x2="28.4" transform="translate(29.3 1)"/><line class="a" y1="56.7" transform="translate(57.7 1)"/><line class="a" x2="56.7" transform="translate(69.2 1)"/><line class="a" x2="56.7" transform="translate(69.2 29.4)"/><line class="a" x2="56.7" transform="translate(69.2 57.7)"/><path class="a" d="M165.6,1a28.3,28.3,0,1,0,28.3,28.3H165.6"/><path class="a" d="M205.3,57.6,233.6,1,262,57.7"/><path class="a" d="M315.8,1a14.2,14.2,0,1,1,0,28.4"/><path class="a" d="M273.3,57.7V29.3h42.5"/><line class="a" x2="42.5" transform="translate(273.3 1)"/><line class="a" y2="56.7" transform="translate(398 1)"/><line class="a" x1="56.7" transform="translate(341.3 29.3)"/><line class="a" y2="56.7" transform="translate(341.3 1)"/><line class="a" y2="56.7" transform="translate(534.1 1)"/><line class="a" x1="56.7" y1="56.7" transform="translate(477.4 1)"/><line class="a" y2="56.7" transform="translate(477.4 1)"/></g></svg>