<svg xmlns="http://www.w3.org/2000/svg" viewBox="4172 734 32 32"><defs><style>.a{fill:#414042;}</style></defs><g transform="translate(4172 734)"><path class="a" d="M16,32c-4.324,0-4.843,0-6.573-.086a10.373,10.373,0,0,1-3.892-.778,8.928,8.928,0,0,1-2.854-1.816A7.662,7.662,0,0,1,.865,26.465a12.407,12.407,0,0,1-.778-3.892C0,20.843,0,20.324,0,16s0-4.843.086-6.573A12.407,12.407,0,0,1,.865,5.535,8.928,8.928,0,0,1,2.681,2.681,7.662,7.662,0,0,1,5.535.865,12.407,12.407,0,0,1,9.427.086C11.07,0,11.676,0,16,0s4.93,0,6.573.086a10.373,10.373,0,0,1,3.892.778,8.928,8.928,0,0,1,2.854,1.816,7.662,7.662,0,0,1,1.816,2.854,12.407,12.407,0,0,1,.778,3.892C32,11.157,32,11.676,32,16s0,4.843-.086,6.573a10.373,10.373,0,0,1-.778,3.892,8.928,8.928,0,0,1-1.816,2.854,7.662,7.662,0,0,1-2.854,1.816,12.407,12.407,0,0,1-3.892.778C20.843,31.914,20.324,32,16,32ZM16,2.854c-4.238,0-4.757,0-6.486.086a7.536,7.536,0,0,0-2.941.605A3.759,3.759,0,0,0,4.757,4.757,6.664,6.664,0,0,0,3.546,6.573a7.536,7.536,0,0,0-.605,2.941c-.086,1.643-.086,2.162-.086,6.486,0,4.238,0,4.757.086,6.486a10.533,10.533,0,0,0,.519,2.941A3.759,3.759,0,0,0,4.67,27.243a6.664,6.664,0,0,0,1.816,1.211,6.8,6.8,0,0,0,2.941.519c1.643.086,2.162.086,6.486.086,4.238,0,4.757,0,6.486-.086a10.533,10.533,0,0,0,2.941-.519,3.759,3.759,0,0,0,1.816-1.211,6.664,6.664,0,0,0,1.211-1.816,6.8,6.8,0,0,0,.519-2.941c.086-1.73.086-2.162.086-6.486,0-4.238,0-4.757-.086-6.486a10.533,10.533,0,0,0-.519-2.941,3.759,3.759,0,0,0-1.211-1.816,6.664,6.664,0,0,0-1.816-1.211A6.8,6.8,0,0,0,22.4,3.027C20.757,2.941,20.238,2.854,16,2.854Z"/><path class="a" d="M17.23,9.1a8.13,8.13,0,1,0,8.13,8.13A8.12,8.12,0,0,0,17.23,9.1m0,13.405a5.276,5.276,0,1,1,5.276-5.276,5.3,5.3,0,0,1-5.276,5.276" transform="translate(-1.23 -1.23)"/><path class="a" d="M30.005,8.3a1.9,1.9,0,1,1-1.9-1.9,1.92,1.92,0,0,1,1.9,1.9" transform="translate(-3.541 -0.865)"/></g></svg>