<?xml version="1.0" encoding="utf-8"?>
<!-- Generator: Adobe Illustrator 24.1.0, SVG Export Plug-In . SVG Version: 6.00 Build 0)  -->
<svg version="1.1" id="Layer_1" xmlns="http://www.w3.org/2000/svg" xmlns:xlink="http://www.w3.org/1999/xlink" x="0px" y="0px"
	 viewBox="0 0 300.7 171.3" style="enable-background:new 0 0 300.7 171.3;" xml:space="preserve">
<style type="text/css">
	.st0{opacity:0.7;}
</style>
<g class="st0">
	<path d="M9.1,25.5h17.1v57C26.2,100.4,18,108,0,107V90.6c6.3,0.3,9.1-1.9,9.1-8V25.5z M7.4,10.3C7.4,4.7,12.1,0,17.7,0
		s10.3,4.7,10.3,10.3s-4.7,10.3-10.3,10.3S7.4,15.9,7.4,10.3z"/>
	<path d="M97.3,25.5v57H80.2v-5.4c-3.8,4.3-9.4,7-17,7c-14.9,0-27.3-13.1-27.3-30.1S48.2,24,63.2,24c7.6,0,13.2,2.6,17,7v-5.4H97.3z
		 M80.2,54.1c0-8.6-5.7-13.9-13.6-13.9c-7.9,0-13.6,5.4-13.6,13.9S58.7,68,66.6,68C74.5,68,80.2,62.6,80.2,54.1z"/>
	<path d="M165.1,25.5l-21.1,57h-19.4l-21.1-57h18.9l11.9,36.2l11.9-36.2H165.1z"/>
	<path d="M169.7,10.3C169.7,4.7,174.4,0,180,0c5.6,0,10.3,4.7,10.3,10.3s-4.7,10.3-10.3,10.3C174.4,20.5,169.7,15.9,169.7,10.3z
		 M171.4,25.5h17.1v123.3h-17.1V25.5z"/>
	<path d="M230,68.9c4.7,0,8.7-1.8,10.9-4.3l13.7,7.9c-5.6,7.8-14,11.7-24.9,11.7c-19.5,0-31.6-13.1-31.6-30.1S210.5,24,228.6,24
		c16.7,0,29,12.9,29,30.1c0,2.4-0.2,4.7-0.7,6.8h-40.5C218.5,66.8,223.8,68.9,230,68.9z M240.5,48.1c-1.8-6.6-7-9-12.1-9
		c-6.5,0-10.8,3.2-12.4,9H240.5z"/>
	<path d="M300.7,24.4v19.4c-7.1-1.1-17.1,1.7-17.1,13v25.8h-17.1v-57h17.1v10.2C285.8,28.1,293.5,24.4,300.7,24.4z"/>
	<path d="M86.7,114.3h10.6v16.4H86.7v40.6H69.6v-40.6h-7.6v-16.4h7.6c0-16,8.8-25.5,27.7-24.4v16.4
		C90.9,105.7,86.7,107.7,86.7,114.3z"/>
	<path d="M159,89.8v57h-17.1v-5.4c-3.1,4.2-8.8,7-16.3,7c-11.5,0-21.3-8.2-21.3-23.6v-35h17.1v32.5c0,7.1,4.4,10.4,9.9,10.4
		c6.3,0,10.6-3.6,10.6-11.7V89.8H159z"/>
	<path d="M258.5,91.4v57h-17.1v-5.4c-3.8,4.3-9.4,7-17,7c-14.9,0-27.3-13.1-27.3-30.1s12.3-30.1,27.3-30.1c7.6,0,13.2,2.6,17,7v-5.4
		H258.5z M241.4,119.9c0-8.6-5.7-13.9-13.6-13.9c-7.9,0-13.6,5.4-13.6,13.9s5.7,13.9,13.6,13.9C235.7,133.8,241.4,128.5,241.4,119.9
		z"/>
</g>
</svg>
